<?xml version="1.0" encoding="UTF-8"?>
<svg version="1.1" xmlns="http://www.w3.org/2000/svg" width="225" height="225">
<path d="M0 0 C74.25 0 148.5 0 225 0 C225 74.25 225 148.5 225 225 C150.75 225 76.5 225 0 225 C0 150.75 0 76.5 0 0 Z " fill="#FDFDFD" transform="translate(0,0)"/>
<path d="M0 0 C10.08491079 5.17235472 19.60873795 11.26358227 29.21386719 17.26220703 C33.63526459 20.01996261 38.06798141 22.75935981 42.5 25.5 C44.24354161 26.57934304 45.98703105 27.65877037 47.73046875 28.73828125 C51.29499053 30.94495318 54.86016769 33.15056142 58.42578125 35.35546875 C62.79210042 38.05563548 67.15624678 40.75928822 71.51953125 43.46435547 C73.96925563 44.98096633 76.42194741 46.49268625 78.875 48.00390625 C80.35426439 48.91911291 81.83343643 49.83446885 83.3125 50.75 C83.99481689 51.16854248 84.67713379 51.58708496 85.38012695 52.01831055 C86.93729548 52.98501943 88.47166797 53.98831769 90 55 C90 55.33 90 55.66 90 56 C30.93 56 -28.14 56 -89 56 C-86.33069738 53.33069738 -84.12021855 51.70932654 -80.93359375 49.76953125 C-79.90387451 49.13958252 -78.87415527 48.50963379 -77.81323242 47.8605957 C-76.14224487 46.84678833 -76.14224487 46.84678833 -74.4375 45.8125 C-73.2696641 45.09965124 -72.10210669 44.38634607 -70.93481445 43.67260742 C-68.50515499 42.18750174 -66.07430344 40.70437668 -63.64257812 39.22265625 C-57.9800616 35.77021428 -52.33442713 32.29036669 -46.6875 28.8125 C-45.61338867 28.15161377 -44.53927734 27.49072754 -43.43261719 26.80981445 C-35.64810632 22.01930074 -27.8733372 17.21321999 -20.10351562 12.39892578 C-13.41075537 8.25220967 -6.70917503 4.12010563 0 0 Z " fill="#FCFCFC" transform="translate(112,10)"/>
<path d="M0 0 C2.2980957 1.16064453 2.2980957 1.16064453 4.67578125 2.6328125 C5.57337158 3.18372559 6.47096191 3.73463867 7.39575195 4.30224609 C8.35827881 4.90375488 9.32080566 5.50526367 10.3125 6.125 C11.32723389 6.75100098 12.34196777 7.37700195 13.38745117 8.02197266 C16.59720855 10.00582731 19.7995437 12.00118022 23 14 C23.99128906 14.61810547 24.98257813 15.23621094 26.00390625 15.87304688 C29.9374471 18.32692689 33.86916904 20.78366281 37.79736328 23.24609375 C46.32659551 28.59150177 54.89418944 33.87296759 63.47070312 39.14208984 C71.29158473 43.94705282 79.11162108 48.75356335 86.89819336 53.61401367 C90.61609306 55.93125202 94.33807261 58.21544282 98.15234375 60.37109375 C98.76875732 60.72623047 99.3851709 61.08136719 100.02026367 61.44726562 C101.60382069 62.3538157 103.19978676 63.23860012 104.796875 64.12109375 C107 66 107 66 107.953125 69.09765625 C107.97632813 70.53431641 107.97632813 70.53431641 108 72 C105.39214476 74.60785524 103.57133435 74.24509024 100.01924944 74.27214891 C99.17432168 74.26836958 98.32939393 74.26459026 97.4588623 74.26069641 C96.11696878 74.26643473 96.11696878 74.26643473 94.74796629 74.27228898 C91.73230941 74.28265733 88.71684156 74.2786196 85.70117188 74.2746582 C83.54651207 74.27900253 81.39185381 74.28418473 79.23719788 74.29014587 C73.3716493 74.3035764 67.50616499 74.30411011 61.64060402 74.30158257 C56.75204619 74.30051572 51.86350152 74.30538881 46.9749465 74.310188 C35.44731768 74.32129695 23.91972143 74.32171262 12.39208984 74.31567383 C0.48030111 74.30962999 -11.43136962 74.32195234 -23.34313822 74.3432439 C-33.55374867 74.36082696 -43.76432145 74.36686652 -53.9749465 74.36360615 C-60.08058471 74.36178807 -66.18613873 74.36448164 -72.29176331 74.37832069 C-78.03072323 74.39084114 -83.76949839 74.38901007 -89.50845528 74.37590981 C-91.62006758 74.3735319 -93.73169265 74.37632175 -95.84329033 74.38453293 C-98.71536609 74.39489982 -101.5868102 74.38698142 -104.4588623 74.3742218 C-105.30379006 74.38159609 -106.14871781 74.38897037 -107.01924944 74.39656812 C-109.3392868 74.37473011 -109.3392868 74.37473011 -113 74 C-115 71 -115 71 -114.89282227 68.50146484 C-113.7553188 65.31446444 -112.62067363 64.65339403 -109.71484375 62.9765625 C-108.34875977 62.16928711 -108.34875977 62.16928711 -106.95507812 61.34570312 C-105.95927734 60.77787109 -104.96347656 60.21003906 -103.9375 59.625 C-101.82064684 58.37924714 -99.70479154 57.13179741 -97.58984375 55.8828125 C-96.49655762 55.2424707 -95.40327148 54.60212891 -94.27685547 53.94238281 C-89.12535147 50.88878679 -84.06490427 47.69445899 -79 44.5 C-70.26606586 39.01697128 -61.4817573 33.62435621 -52.66210938 28.28051758 C-45.57022393 23.97568478 -38.52864771 19.59468788 -31.5 15.1875 C-29.50405125 13.94117401 -27.50796203 12.69507294 -25.51171875 11.44921875 C-22.10687613 9.32360825 -18.71410569 7.18114038 -15.33203125 5.01953125 C-13.99256806 4.17908069 -12.65275582 3.33918599 -11.3125 2.5 C-10.73113281 2.11996826 -10.14976563 1.73993652 -9.55078125 1.34838867 C-5.8704123 -0.92695962 -4.10614516 -1.17790429 0 0 Z M-8.28515625 11.53515625 C-9.65124023 12.36660156 -9.65124023 12.36660156 -11.04492188 13.21484375 C-12.04072266 13.82457031 -13.03652344 14.43429688 -14.0625 15.0625 C-15.09310547 15.6915625 -16.12371094 16.320625 -17.18554688 16.96875 C-25.49339986 22.05108284 -33.75345885 27.20790207 -42.00292969 32.38427734 C-48.9054124 36.70925069 -55.84625228 40.96611645 -62.8125 45.1875 C-70.21840405 49.68037698 -77.60094426 54.20708607 -84.9375 58.8125 C-85.75516846 59.32256592 -86.57283691 59.83263184 -87.4152832 60.3581543 C-88.15351318 60.82390869 -88.89174316 61.28966309 -89.65234375 61.76953125 C-90.30195068 62.17792236 -90.95155762 62.58631348 -91.62084961 63.00708008 C-92.07596924 63.33474365 -92.53108887 63.66240723 -93 64 C-93 64.33 -93 64.66 -93 65 C-33.93 65 25.14 65 86 65 C83.46549323 62.46549323 81.53416212 60.97411658 78.51953125 59.171875 C77.61549561 58.62740723 76.71145996 58.08293945 75.7800293 57.52197266 C74.31110229 56.64484619 74.31110229 56.64484619 72.8125 55.75 C70.71018486 54.48301886 68.60864569 53.21474941 66.5078125 51.9453125 C65.42661133 51.29208008 64.34541016 50.63884766 63.23144531 49.96582031 C58.18815156 46.89777851 53.18695856 43.76379846 48.1875 40.625 C36.54025559 33.3205522 24.84021255 26.10450725 13.11962891 18.91845703 C10.86846247 17.53407248 8.62092283 16.14467913 6.37646484 14.74951172 C5.77819382 14.37857895 5.17992279 14.00764618 4.56352234 13.62547302 C2.87761039 12.57984002 1.1930416 11.53204231 -0.49145508 10.48413086 C-4.24359378 8.2642524 -4.6496802 9.31911199 -8.28515625 11.53515625 Z " fill="#020202" transform="translate(116,1)"/>
<path d="M0 0 C36.63 0 73.26 0 111 0 C107.83735203 2.53011837 105.20506296 4.59810161 101.8046875 6.59375 C101.01666748 7.06022949 100.22864746 7.52670898 99.41674805 8.00732422 C98.15858276 8.74619873 98.15858276 8.74619873 96.875 9.5 C90.08245611 13.53011484 83.34828703 17.63063832 76.6875 21.875 C69.77890955 26.27190004 62.81653242 30.56931947 55.8125 34.8125 C47.69236211 39.73383715 39.61091502 44.71217751 31.5625 49.75 C30.56436279 50.37438965 29.56622559 50.9987793 28.5378418 51.64208984 C24.01887423 54.47210498 19.50558305 57.31052464 15.00390625 60.16796875 C13.88230103 60.87711426 13.88230103 60.87711426 12.73803711 61.60058594 C11.37049171 62.46582899 10.00525448 63.33473558 8.64282227 64.20800781 C4.22417544 67 4.22417544 67 2 67 C2 68.98 2 70.96 2 73 C1.34 73 0.68 73 0 73 C0 48.91 0 24.82 0 0 Z " fill="#FDFDFD" transform="translate(0,0)"/>
<path d="M0 0 C36.63 0 73.26 0 111 0 C111 22.77 111 45.54 111 69 C110.34 69 109.68 69 109 69 C109 68.34 109 67.68 109 67 C108.28714844 66.73678955 107.57429688 66.4735791 106.83984375 66.20239258 C103.87705915 64.94794672 101.29509254 63.45845595 98.5625 61.76171875 C97.51344482 61.11307861 96.46438965 60.46443848 95.38354492 59.79614258 C94.2669751 59.10029053 93.15040527 58.40443848 92 57.6875 C90.82875758 56.96146848 89.65728665 56.2358055 88.4855957 55.51049805 C86.11359187 54.04133515 83.74294698 52.57001916 81.37353516 51.09667969 C78.36986923 49.22987675 75.36361056 47.36739108 72.35546875 45.5078125 C68.08340414 42.86686361 63.81348937 40.22246948 59.54443359 37.57666016 C54.32655376 34.34339706 49.1068335 31.11310458 43.88696289 27.88305664 C39.43570332 25.12830702 34.98601044 22.37108028 30.5390625 19.609375 C28.73446096 18.48944481 26.92977453 17.36965139 25.125 16.25 C24.2585083 15.71213867 23.3920166 15.17427734 22.49926758 14.62011719 C16.46382448 10.88249575 10.39340659 7.20798349 4.26416016 3.62597656 C2.82685216 2.77704741 1.41054327 1.89269405 0 1 C0 0.67 0 0.34 0 0 Z " fill="#FDFDFD" transform="translate(114,0)"/>
<path d="M0 0 C0.969375 -0.00386719 1.93875 -0.00773437 2.9375 -0.01171875 C3.948125 -0.00011719 4.95875 0.01148437 6 0.0234375 C7.010625 0.01183594 8.02125 0.00023438 9.0625 -0.01171875 C10.031875 -0.00785156 11.00125 -0.00398438 12 0 C12.886875 0.00338379 13.77375 0.00676758 14.6875 0.01025391 C17.53053962 0.48749557 18.24656037 1.14540727 20 3.3984375 C20.37752342 5.57081604 20.37752342 5.57081604 20.38095093 8.14282227 C20.3894104 9.11865265 20.39786987 10.09448303 20.40658569 11.09988403 C20.400513 12.16907074 20.39444031 13.23825745 20.38818359 14.33984375 C20.39344055 15.46687714 20.39869751 16.59391052 20.40411377 17.75509644 C20.41734655 21.49051666 20.40856376 25.22551274 20.3984375 28.9609375 C20.40045728 31.55021242 20.40336792 34.13948679 20.40713501 36.72875977 C20.41156283 42.15940277 20.40539752 47.58988556 20.39111328 53.02050781 C20.37478637 59.30026207 20.3800748 65.57972414 20.3965925 71.85947132 C20.41184255 77.89885818 20.41023393 83.93810199 20.4014473 89.97750854 C20.39944184 92.54841146 20.40191659 95.11932181 20.40888596 97.69021606 C20.4164797 101.27935725 20.40492466 104.86793237 20.38818359 108.45703125 C20.39729263 110.06081131 20.39729263 110.06081131 20.40658569 111.69699097 C20.39812622 112.67282135 20.38966675 113.64865173 20.38095093 114.65405273 C20.37981985 115.50281479 20.37868877 116.35157684 20.37752342 117.22605896 C19.91390023 119.89388041 19.13609524 120.78029178 17 122.3984375 C14.6875 122.78662109 14.6875 122.78662109 12 122.796875 C11.030625 122.80074219 10.06125 122.80460937 9.0625 122.80859375 C8.051875 122.79699219 7.04125 122.78539062 6 122.7734375 C4.989375 122.78503906 3.97875 122.79664063 2.9375 122.80859375 C1.968125 122.80472656 0.99875 122.80085938 0 122.796875 C-0.886875 122.79349121 -1.77375 122.79010742 -2.6875 122.78662109 C-5.53053962 122.30937943 -6.24656037 121.65146773 -8 119.3984375 C-8.37752342 117.22605896 -8.37752342 117.22605896 -8.38095093 114.65405273 C-8.3894104 113.67822235 -8.39786987 112.70239197 -8.40658569 111.69699097 C-8.400513 110.62780426 -8.39444031 109.55861755 -8.38818359 108.45703125 C-8.39344055 107.32999786 -8.39869751 106.20296448 -8.40411377 105.04177856 C-8.41734655 101.30635834 -8.40856376 97.57136226 -8.3984375 93.8359375 C-8.40045728 91.24666258 -8.40336792 88.65738821 -8.40713501 86.06811523 C-8.41156283 80.63747223 -8.40539752 75.20698944 -8.39111328 69.77636719 C-8.37478637 63.49661293 -8.3800748 57.21715086 -8.3965925 50.93740368 C-8.41184255 44.89801682 -8.41023393 38.85877301 -8.4014473 32.81936646 C-8.39944184 30.24846354 -8.40191659 27.67755319 -8.40888596 25.10665894 C-8.4164797 21.51751775 -8.40492466 17.92894263 -8.38818359 14.33984375 C-8.39425629 13.27065704 -8.40032898 12.20147034 -8.40658569 11.09988403 C-8.39812622 10.12405365 -8.38966675 9.14822327 -8.38095093 8.14282227 C-8.37981985 7.29406021 -8.37868877 6.44529816 -8.37752342 5.57081604 C-7.53105191 0.69997509 -4.47029158 0.01705598 0 0 Z " fill="#030303" transform="translate(177,83.6015625)"/>
<path d="M0 0 C0.969375 -0.00386719 1.93875 -0.00773437 2.9375 -0.01171875 C3.948125 -0.00011719 4.95875 0.01148437 6 0.0234375 C7.010625 0.01183594 8.02125 0.00023438 9.0625 -0.01171875 C10.031875 -0.00785156 11.00125 -0.00398438 12 0 C12.886875 0.00338379 13.77375 0.00676758 14.6875 0.01025391 C17.53053962 0.48749557 18.24656037 1.14540727 20 3.3984375 C20.37752342 5.57081604 20.37752342 5.57081604 20.38095093 8.14282227 C20.3894104 9.11865265 20.39786987 10.09448303 20.40658569 11.09988403 C20.400513 12.16907074 20.39444031 13.23825745 20.38818359 14.33984375 C20.39344055 15.46687714 20.39869751 16.59391052 20.40411377 17.75509644 C20.41734655 21.49051666 20.40856376 25.22551274 20.3984375 28.9609375 C20.40045728 31.55021242 20.40336792 34.13948679 20.40713501 36.72875977 C20.41156283 42.15940277 20.40539752 47.58988556 20.39111328 53.02050781 C20.37478637 59.30026207 20.3800748 65.57972414 20.3965925 71.85947132 C20.41184255 77.89885818 20.41023393 83.93810199 20.4014473 89.97750854 C20.39944184 92.54841146 20.40191659 95.11932181 20.40888596 97.69021606 C20.4164797 101.27935725 20.40492466 104.86793237 20.38818359 108.45703125 C20.39729263 110.06081131 20.39729263 110.06081131 20.40658569 111.69699097 C20.39812622 112.67282135 20.38966675 113.64865173 20.38095093 114.65405273 C20.37981985 115.50281479 20.37868877 116.35157684 20.37752342 117.22605896 C19.91390023 119.89388041 19.13609524 120.78029178 17 122.3984375 C14.6875 122.78662109 14.6875 122.78662109 12 122.796875 C11.030625 122.80074219 10.06125 122.80460937 9.0625 122.80859375 C8.051875 122.79699219 7.04125 122.78539062 6 122.7734375 C4.989375 122.78503906 3.97875 122.79664063 2.9375 122.80859375 C1.968125 122.80472656 0.99875 122.80085938 0 122.796875 C-0.886875 122.79349121 -1.77375 122.79010742 -2.6875 122.78662109 C-5.53053962 122.30937943 -6.24656037 121.65146773 -8 119.3984375 C-8.37752342 117.22605896 -8.37752342 117.22605896 -8.38095093 114.65405273 C-8.3894104 113.67822235 -8.39786987 112.70239197 -8.40658569 111.69699097 C-8.400513 110.62780426 -8.39444031 109.55861755 -8.38818359 108.45703125 C-8.39344055 107.32999786 -8.39869751 106.20296448 -8.40411377 105.04177856 C-8.41734655 101.30635834 -8.40856376 97.57136226 -8.3984375 93.8359375 C-8.40045728 91.24666258 -8.40336792 88.65738821 -8.40713501 86.06811523 C-8.41156283 80.63747223 -8.40539752 75.20698944 -8.39111328 69.77636719 C-8.37478637 63.49661293 -8.3800748 57.21715086 -8.3965925 50.93740368 C-8.41184255 44.89801682 -8.41023393 38.85877301 -8.4014473 32.81936646 C-8.39944184 30.24846354 -8.40191659 27.67755319 -8.40888596 25.10665894 C-8.4164797 21.51751775 -8.40492466 17.92894263 -8.38818359 14.33984375 C-8.39425629 13.27065704 -8.40032898 12.20147034 -8.40658569 11.09988403 C-8.39812622 10.12405365 -8.38966675 9.14822327 -8.38095093 8.14282227 C-8.37981985 7.29406021 -8.37868877 6.44529816 -8.37752342 5.57081604 C-7.53105191 0.69997509 -4.47029158 0.01705598 0 0 Z " fill="#030303" transform="translate(36,83.6015625)"/>
<path d="M0 0 C0.969375 -0.00386719 1.93875 -0.00773437 2.9375 -0.01171875 C3.948125 -0.00011719 4.95875 0.01148437 6 0.0234375 C7.010625 0.01183594 8.02125 0.00023438 9.0625 -0.01171875 C10.031875 -0.00785156 11.00125 -0.00398438 12 0 C12.886875 0.00338379 13.77375 0.00676758 14.6875 0.01025391 C17.53053962 0.48749557 18.24656037 1.14540727 20 3.3984375 C20.37752342 5.57081604 20.37752342 5.57081604 20.38095093 8.14282227 C20.3894104 9.11865265 20.39786987 10.09448303 20.40658569 11.09988403 C20.400513 12.16907074 20.39444031 13.23825745 20.38818359 14.33984375 C20.39344055 15.46687714 20.39869751 16.59391052 20.40411377 17.75509644 C20.41734655 21.49051666 20.40856376 25.22551274 20.3984375 28.9609375 C20.40045728 31.55021242 20.40336792 34.13948679 20.40713501 36.72875977 C20.41156283 42.15940277 20.40539752 47.58988556 20.39111328 53.02050781 C20.37478637 59.30026207 20.3800748 65.57972414 20.3965925 71.85947132 C20.41184255 77.89885818 20.41023393 83.93810199 20.4014473 89.97750854 C20.39944184 92.54841146 20.40191659 95.11932181 20.40888596 97.69021606 C20.4164797 101.27935725 20.40492466 104.86793237 20.38818359 108.45703125 C20.39729263 110.06081131 20.39729263 110.06081131 20.40658569 111.69699097 C20.39812622 112.67282135 20.38966675 113.64865173 20.38095093 114.65405273 C20.37981985 115.50281479 20.37868877 116.35157684 20.37752342 117.22605896 C19.91390023 119.89388041 19.13609524 120.78029178 17 122.3984375 C14.6875 122.78662109 14.6875 122.78662109 12 122.796875 C11.030625 122.80074219 10.06125 122.80460937 9.0625 122.80859375 C8.051875 122.79699219 7.04125 122.78539062 6 122.7734375 C4.989375 122.78503906 3.97875 122.79664063 2.9375 122.80859375 C1.968125 122.80472656 0.99875 122.80085938 0 122.796875 C-0.886875 122.79349121 -1.77375 122.79010742 -2.6875 122.78662109 C-5.53053962 122.30937943 -6.24656037 121.65146773 -8 119.3984375 C-8.37752342 117.22605896 -8.37752342 117.22605896 -8.38095093 114.65405273 C-8.3894104 113.67822235 -8.39786987 112.70239197 -8.40658569 111.69699097 C-8.400513 110.62780426 -8.39444031 109.55861755 -8.38818359 108.45703125 C-8.39344055 107.32999786 -8.39869751 106.20296448 -8.40411377 105.04177856 C-8.41734655 101.30635834 -8.40856376 97.57136226 -8.3984375 93.8359375 C-8.40045728 91.24666258 -8.40336792 88.65738821 -8.40713501 86.06811523 C-8.41156283 80.63747223 -8.40539752 75.20698944 -8.39111328 69.77636719 C-8.37478637 63.49661293 -8.3800748 57.21715086 -8.3965925 50.93740368 C-8.41184255 44.89801682 -8.41023393 38.85877301 -8.4014473 32.81936646 C-8.39944184 30.24846354 -8.40191659 27.67755319 -8.40888596 25.10665894 C-8.4164797 21.51751775 -8.40492466 17.92894263 -8.38818359 14.33984375 C-8.39425629 13.27065704 -8.40032898 12.20147034 -8.40658569 11.09988403 C-8.39812622 10.12405365 -8.38966675 9.14822327 -8.38095093 8.14282227 C-8.37981985 7.29406021 -8.37868877 6.44529816 -8.37752342 5.57081604 C-7.53105191 0.69997509 -4.47029158 0.01705598 0 0 Z " fill="#030303" transform="translate(130,83.6015625)"/>
<path d="M0 0 C0.969375 -0.00386719 1.93875 -0.00773437 2.9375 -0.01171875 C3.948125 -0.00011719 4.95875 0.01148437 6 0.0234375 C7.010625 0.01183594 8.02125 0.00023438 9.0625 -0.01171875 C10.031875 -0.00785156 11.00125 -0.00398438 12 0 C12.886875 0.00338379 13.77375 0.00676758 14.6875 0.01025391 C17.53053962 0.48749557 18.24656037 1.14540727 20 3.3984375 C20.37752342 5.57081604 20.37752342 5.57081604 20.38095093 8.14282227 C20.3894104 9.11865265 20.39786987 10.09448303 20.40658569 11.09988403 C20.400513 12.16907074 20.39444031 13.23825745 20.38818359 14.33984375 C20.39344055 15.46687714 20.39869751 16.59391052 20.40411377 17.75509644 C20.41734655 21.49051666 20.40856376 25.22551274 20.3984375 28.9609375 C20.40045728 31.55021242 20.40336792 34.13948679 20.40713501 36.72875977 C20.41156283 42.15940277 20.40539752 47.58988556 20.39111328 53.02050781 C20.37478637 59.30026207 20.3800748 65.57972414 20.3965925 71.85947132 C20.41184255 77.89885818 20.41023393 83.93810199 20.4014473 89.97750854 C20.39944184 92.54841146 20.40191659 95.11932181 20.40888596 97.69021606 C20.4164797 101.27935725 20.40492466 104.86793237 20.38818359 108.45703125 C20.39729263 110.06081131 20.39729263 110.06081131 20.40658569 111.69699097 C20.39812622 112.67282135 20.38966675 113.64865173 20.38095093 114.65405273 C20.37981985 115.50281479 20.37868877 116.35157684 20.37752342 117.22605896 C19.91390023 119.89388041 19.13609524 120.78029178 17 122.3984375 C14.6875 122.78662109 14.6875 122.78662109 12 122.796875 C11.030625 122.80074219 10.06125 122.80460937 9.0625 122.80859375 C8.051875 122.79699219 7.04125 122.78539062 6 122.7734375 C4.989375 122.78503906 3.97875 122.79664063 2.9375 122.80859375 C1.968125 122.80472656 0.99875 122.80085938 0 122.796875 C-0.886875 122.79349121 -1.77375 122.79010742 -2.6875 122.78662109 C-5.53053962 122.30937943 -6.24656037 121.65146773 -8 119.3984375 C-8.37752342 117.22605896 -8.37752342 117.22605896 -8.38095093 114.65405273 C-8.3894104 113.67822235 -8.39786987 112.70239197 -8.40658569 111.69699097 C-8.400513 110.62780426 -8.39444031 109.55861755 -8.38818359 108.45703125 C-8.39344055 107.32999786 -8.39869751 106.20296448 -8.40411377 105.04177856 C-8.41734655 101.30635834 -8.40856376 97.57136226 -8.3984375 93.8359375 C-8.40045728 91.24666258 -8.40336792 88.65738821 -8.40713501 86.06811523 C-8.41156283 80.63747223 -8.40539752 75.20698944 -8.39111328 69.77636719 C-8.37478637 63.49661293 -8.3800748 57.21715086 -8.3965925 50.93740368 C-8.41184255 44.89801682 -8.41023393 38.85877301 -8.4014473 32.81936646 C-8.39944184 30.24846354 -8.40191659 27.67755319 -8.40888596 25.10665894 C-8.4164797 21.51751775 -8.40492466 17.92894263 -8.38818359 14.33984375 C-8.39425629 13.27065704 -8.40032898 12.20147034 -8.40658569 11.09988403 C-8.39812622 10.12405365 -8.38966675 9.14822327 -8.38095093 8.14282227 C-8.37981985 7.29406021 -8.37868877 6.44529816 -8.37752342 5.57081604 C-7.53105191 0.69997509 -4.47029158 0.01705598 0 0 Z " fill="#030303" transform="translate(83,83.6015625)"/>
<path d="M0 0 C0.8478406 0.0015486 1.69568119 0.0030972 2.56921393 0.00469273 C3.46295519 0.00242718 4.35669645 0.00016162 5.27752078 -0.00217259 C8.29623786 -0.00854311 11.31491039 -0.00768128 14.33363348 -0.00685817 C16.48814458 -0.00984775 18.64265513 -0.01324981 20.79716498 -0.01703578 C26.66689042 -0.02590024 32.5366013 -0.02821491 38.40633279 -0.02885157 C43.29732203 -0.02979858 48.18830783 -0.03347444 53.07929575 -0.03702366 C64.61313274 -0.04517746 76.14696192 -0.04760705 87.68080145 -0.04689723 C99.59992664 -0.04629613 111.51900662 -0.05685225 123.43812037 -0.0726409 C133.65295139 -0.08569247 143.8677676 -0.09108214 154.08260691 -0.09044182 C160.19159701 -0.09018614 166.30054696 -0.09307586 172.40952879 -0.10361987 C178.15254214 -0.11326093 183.89547661 -0.11340765 189.63849264 -0.10610324 C191.7517172 -0.10505242 193.86494657 -0.10744952 195.97816283 -0.1134637 C198.85235767 -0.12111663 201.72627556 -0.11658366 204.60046393 -0.10883266 C205.4460738 -0.11397622 206.29168368 -0.11911978 207.16291809 -0.12441921 C212.92005956 -0.08986568 212.92005956 -0.08986568 215.14833075 2.1384055 C214.81861596 5.43555343 214.52564685 6.7610894 212.14833075 9.1384055 C209.29704423 9.33847328 206.54253982 9.41199098 203.68984991 9.39910191 C202.8041269 9.40292746 201.91840388 9.40675301 201.00584078 9.41069448 C198.02015635 9.4210626 195.03466287 9.41702514 192.04896551 9.4130637 C189.91563239 9.41740807 187.78230083 9.42259029 185.64897162 9.42855138 C179.84120512 9.44198223 174.03350353 9.44251552 168.22572452 9.43998808 C163.38448214 9.43892113 158.54325304 9.44379462 153.70201349 9.4485935 C142.28461377 9.45970282 130.86724694 9.46011809 119.44984442 9.45407933 C107.65509078 9.4480371 95.86045636 9.46035369 84.06572306 9.4816494 C73.95360989 9.49923855 63.84153475 9.50527101 53.72940683 9.50201166 C47.68354017 9.50019436 41.63775853 9.50287925 35.59190565 9.5167262 C29.90793403 9.52925629 24.22414886 9.52740628 18.54018027 9.51431531 C16.44995124 9.51193943 14.35970929 9.5147201 12.26949507 9.52293843 C9.42404212 9.53332239 6.57922458 9.52537283 3.73379523 9.5126273 C2.89956221 9.52000159 2.06532919 9.52737587 1.20581639 9.53497362 C-4.40958981 9.48177125 -4.40958981 9.48177125 -6.60182714 7.77904737 C-7.85166925 6.1384055 -7.85166925 6.1384055 -7.60166925 3.5134055 C-6.22448782 -0.84766903 -4.27507881 0.01805183 0 0 Z " fill="#000000" transform="translate(8.851669251918793,215.8615944981575)"/>
<path d="M0 0 C3.3 0 6.6 0 10 0 C10 34.32 10 68.64 10 104 C6.7 104 3.4 104 0 104 C0 69.68 0 35.36 0 0 Z " fill="#E9E9E9" transform="translate(178,93)"/>
<path d="M0 0 C3.3 0 6.6 0 10 0 C10 34.32 10 68.64 10 104 C6.7 104 3.4 104 0 104 C0 69.68 0 35.36 0 0 Z " fill="#E9E9E9" transform="translate(131,93)"/>
<path d="M0 0 C3.3 0 6.6 0 10 0 C10 34.32 10 68.64 10 104 C6.7 104 3.4 104 0 104 C0 69.68 0 35.36 0 0 Z " fill="#E9E9E9" transform="translate(84,93)"/>
<path d="M0 0 C3.3 0 6.6 0 10 0 C10 34.32 10 68.64 10 104 C6.7 104 3.4 104 0 104 C0 69.68 0 35.36 0 0 Z " fill="#E9E9E9" transform="translate(37,93)"/>
<path d="M0 0 C3.48488515 1.99223329 6.19540905 4.3908181 8 8 C8.54644038 12.98066973 8.54204675 16.8958307 6.3125 21.4375 C2.51727712 25.64301725 -0.22715963 27.17741998 -5.875 27.5625 C-10.76503463 27.43092956 -13.23782417 25.92630873 -16.72265625 22.60546875 C-20.00101332 18.48496491 -19.43829055 12.98057447 -19 8 C-17.73227896 4.86405847 -16.47948636 3.43453452 -14 1.1875 C-9.3269877 -0.66223404 -4.94296932 -0.89679586 0 0 Z " fill="#030303" transform="translate(118,29)"/>
<path d="M0 0 C2.5 0.25 2.5 0.25 4.5 2.25 C4.75 4.75 4.75 4.75 4.5 7.25 C2.5 9.25 2.5 9.25 0 9.5 C-2.5 9.25 -2.5 9.25 -4.5 7.25 C-4.75 4.75 -4.75 4.75 -4.5 2.25 C-2.5 0.25 -2.5 0.25 0 0 Z " fill="#F8F8F8" transform="translate(112.5,37.75)"/>
</svg>
